<svg width="840" height="520" viewBox="0 0 840 520" fill="none" xmlns="http://www.w3.org/2000/svg">
  <rect width="840" height="520" rx="36" fill="#FFFFFF"/>
  <rect x="24" y="24" width="792" height="84" rx="24" fill="#F8EFE6"/>
  <rect x="56" y="50" width="240" height="20" rx="10" fill="#D5C8BC"/>
  <rect x="320" y="50" width="150" height="20" rx="10" fill="#ECE0D5"/>
  <rect x="490" y="50" width="120" height="20" rx="10" fill="#ECE0D5"/>
  <rect x="632" y="46" width="152" height="28" rx="14" fill="#A855F7" opacity="0.25"/>

  <rect x="24" y="124" width="792" height="140" rx="24" fill="#FFFFFF" stroke="#EFDFD3" stroke-width="2"/>
  <rect x="56" y="152" width="220" height="20" rx="10" fill="#D1C2B5"/>
  <rect x="56" y="184" width="320" height="14" rx="7" fill="#ECE0D5"/>
  <rect x="56" y="206" width="200" height="14" rx="7" fill="#ECE0D5"/>
  <rect x="404" y="152" width="156" height="90" rx="18" fill="#F6F1EC"/>
  <rect x="580" y="152" width="156" height="90" rx="18" fill="#A855F7" opacity="0.08"/>
  <rect x="600" y="180" width="116" height="14" rx="7" fill="#CBB9E7"/>
  <rect x="600" y="202" width="84" height="14" rx="7" fill="#E4D7F5"/>

  <rect x="24" y="284" width="792" height="212" rx="28" fill="#FFFFFF" stroke="#EFDFD3" stroke-width="2"/>
  <rect x="56" y="312" width="220" height="20" rx="10" fill="#D1C2B5"/>
  <rect x="56" y="346" width="300" height="14" rx="7" fill="#ECE0D5"/>
  <rect x="56" y="368" width="180" height="14" rx="7" fill="#ECE0D5"/>

  <rect x="56" y="396" width="728" height="84" rx="18" fill="#FBF6F1"/>
  <rect x="80" y="418" width="160" height="14" rx="7" fill="#D5C8BC"/>
  <rect x="270" y="418" width="120" height="14" rx="7" fill="#ECE0D5"/>
  <rect x="420" y="418" width="140" height="14" rx="7" fill="#ECE0D5"/>
  <rect x="590" y="418" width="120" height="14" rx="7" fill="#E1D4C8"/>
  <rect x="80" y="442" width="120" height="12" rx="6" fill="#ECE0D5"/>
  <rect x="220" y="442" width="180" height="12" rx="6" fill="#ECE0D5"/>
  <rect x="420" y="442" width="120" height="12" rx="6" fill="#D5C8BC"/>
  <rect x="560" y="442" width="160" height="12" rx="6" fill="#ECE0D5"/>

  <rect x="370" y="320" width="124" height="28" rx="14" fill="#FFFFFF" stroke="#EFDFD3" stroke-width="2"/>
  <rect x="514" y="320" width="124" height="28" rx="14" fill="#FFFFFF" stroke="#EFDFD3" stroke-width="2"/>
  <rect x="658" y="320" width="124" height="28" rx="14" fill="#FFFFFF" stroke="#EFDFD3" stroke-width="2"/>
</svg>
