<svg width="840" height="520" viewBox="0 0 840 520" fill="none" xmlns="http://www.w3.org/2000/svg">
  <rect width="840" height="520" rx="40" fill="#FFFFFF"/>
  <rect x="24" y="24" width="792" height="88" rx="20" fill="#F8F2EC"/>
  <circle cx="60" cy="68" r="18" fill="#A855F7" opacity="0.85"/>
  <rect x="104" y="46" width="180" height="16" rx="8" fill="#E0D3C6"/>
  <rect x="104" y="70" width="120" height="14" rx="7" fill="#EFE5DA"/>
  <rect x="316" y="50" width="120" height="20" rx="10" fill="#FFFFFF" stroke="#E8DACD" stroke-width="2"/>
  <rect x="452" y="50" width="120" height="20" rx="10" fill="#FFFFFF" stroke="#E8DACD" stroke-width="2"/>
  <rect x="588" y="50" width="120" height="20" rx="10" fill="#A855F7" opacity="0.2"/>

  <rect x="24" y="132" width="792" height="160" rx="24" fill="#FDF9F4" stroke="#F1E4D8" stroke-width="2"/>
  <rect x="56" y="164" width="240" height="24" rx="12" fill="#E6DBCF"/>
  <rect x="56" y="200" width="320" height="14" rx="7" fill="#EFE5DA"/>
  <rect x="56" y="228" width="220" height="14" rx="7" fill="#EFE5DA"/>
  <rect x="420" y="164" width="140" height="100" rx="20" fill="#FFFFFF" stroke="#E8DACD"/>
  <rect x="580" y="164" width="140" height="100" rx="20" fill="#FFFFFF" stroke="#E8DACD"/>
  <rect x="604" y="184" width="92" height="14" rx="7" fill="#EFE5DA"/>
  <rect x="604" y="208" width="72" height="32" rx="10" fill="#A855F7" opacity="0.15"/>

  <rect x="24" y="312" width="792" height="184" rx="24" fill="#FFFFFF" stroke="#F1E4D8" stroke-width="2"/>
  <rect x="56" y="340" width="132" height="20" rx="10" fill="#EFE5DA"/>
  <rect x="56" y="368" width="240" height="14" rx="7" fill="#F4EAE0"/>

  <rect x="56" y="400" width="728" height="64" rx="16" fill="#FBF5EF"/>
  <rect x="80" y="420" width="180" height="12" rx="6" fill="#E0D3C6"/>
  <rect x="292" y="420" width="120" height="12" rx="6" fill="#EFE5DA"/>
  <rect x="436" y="420" width="120" height="12" rx="6" fill="#D2C6BA"/>
  <rect x="580" y="420" width="120" height="12" rx="6" fill="#EFE5DA"/>

  <rect x="420" y="340" width="364" height="20" rx="10" fill="#EFE5DA"/>
  <rect x="420" y="368" width="220" height="12" rx="6" fill="#F4EAE0"/>
  <rect x="654" y="368" width="130" height="12" rx="6" fill="#E0D3C6"/>
</svg>
